<svg width="13" height="8" viewBox="0 0 9 5" xmlns="http://www.w3.org/2000/svg" fill="white">
  <path d="M0.750004 0.625004C0.896037 0.624719 1.03756 0.675578 1.15 0.768754L4.5 3.56875L7.85626 0.868755C7.92019 0.816839 7.99375 0.778069 8.07271 0.754674C8.15167 0.731279 8.23448 0.72372 8.31637 0.732432C8.39826 0.741144 8.47763 0.765955 8.5499 0.805438C8.62217 0.844922 8.68593 0.8983 8.73751 0.962504C8.78942 1.02643 8.82819 1.09999 8.85159 1.17896C8.87498 1.25792 8.88254 1.34073 8.87383 1.42262C8.86512 1.50451 8.84031 1.58388 8.80082 1.65615C8.76134 1.72842 8.70796 1.79218 8.64376 1.84375L4.89375 4.8625C4.78192 4.95443 4.64164 5.00468 4.49688 5.00468C4.35211 5.00468 4.21184 4.95443 4.1 4.8625L0.350004 1.7375C0.286718 1.68504 0.234404 1.6206 0.196059 1.54788C0.157713 1.47516 0.13409 1.3956 0.126542 1.31374C0.118995 1.23188 0.127673 1.14933 0.152075 1.07083C0.176478 0.992326 0.216127 0.919409 0.268753 0.856254C0.326912 0.784558 0.400233 0.726637 0.483443 0.686652C0.566653 0.646668 0.657688 0.625614 0.750004 0.625004Z" fill="white"/>
</svg>
